<svg width="11" height="22" viewBox="0 0 11 22" fill="none" xmlns="http://www.w3.org/2000/svg">
<path d="M3.39183 11.6798C3.11408 11.3951 2.95805 11.0091 2.95805 10.6066C2.95805 10.2041 3.11408 9.8181 3.39183 9.53345L10.1848 2.57239C10.4547 2.28611 10.604 1.90269 10.6006 1.5047C10.5972 1.10672 10.4414 0.726011 10.1667 0.444581C9.89204 0.163151 9.52045 0.00351578 9.13199 5.73801e-05C8.74353 -0.00340102 8.36928 0.149595 8.08986 0.426091L1.30134 7.38715C0.468094 8.24109 0 9.39913 0 10.6066C0 11.8141 0.468094 12.9721 1.30134 13.8261L8.09578 20.7871C8.37521 21.0636 8.74945 21.2166 9.13791 21.2131C9.52637 21.2097 9.89797 21.0501 10.1727 20.7686C10.4474 20.4872 10.6032 20.1065 10.6065 19.7085C10.6099 19.3105 10.4606 18.9271 10.1907 18.6408L3.39183 11.6798Z" fill="white"/>
</svg>
