<svg width="19" height="22" viewBox="0 0 19 22" fill="none" xmlns="http://www.w3.org/2000/svg">
<path d="M9.78286 11.4363C10.2532 11.3728 10.5831 10.94 10.5196 10.4697C10.4561 9.99931 10.0233 9.6696 9.55302 9.73294C9.44946 9.74691 9.34354 9.754 9.23827 9.754C7.95886 9.754 6.91794 8.71307 6.91794 7.43367C6.91794 6.15426 7.95886 5.11334 9.23827 5.11334C10.5177 5.11334 11.5586 6.15426 11.5586 7.43367C11.5586 7.56038 11.5484 7.68731 11.5282 7.81098C11.4519 8.27943 11.7697 8.72111 12.2381 8.79746C12.7071 8.87377 13.1482 8.55597 13.2246 8.08757C13.2597 7.87272 13.2774 7.65272 13.2774 7.43362C13.2774 5.20645 11.4655 3.39453 9.23831 3.39453C7.01114 3.39453 5.19922 5.20645 5.19922 7.43362C5.19922 9.6608 7.01114 11.4727 9.23831 11.4727C9.4202 11.4727 9.60346 11.4604 9.78286 11.4363Z" fill="white"/>
<path d="M17.0916 17.0417C16.4305 16.6949 15.5229 16.4028 14.3939 16.1734C13.9285 16.0789 13.4751 16.3793 13.3806 16.8444C13.2861 17.3095 13.5866 17.7632 14.0517 17.8577C15.7931 18.2115 16.5071 18.6362 16.7131 18.8422C16.5613 18.9942 16.054 19.3759 14.5635 19.7347C13.0995 20.0871 11.2084 20.2812 9.23835 20.2812C7.26835 20.2812 5.37723 20.0871 3.91319 19.7347C2.42268 19.3759 1.91539 18.9943 1.76366 18.8422C1.96962 18.6362 2.68355 18.2115 4.42508 17.8577C4.89018 17.7632 5.19062 17.3095 5.09613 16.8444C5.00164 16.3793 4.54789 16.079 4.08283 16.1734C2.95387 16.4028 2.04623 16.6949 1.38515 17.0417C0.466042 17.5238 0 18.1301 0 18.8436C0 19.9098 1.03839 20.7351 3.0863 21.2966C4.74082 21.7502 6.92567 21.9999 9.23835 21.9999C11.551 21.9999 13.7359 21.7502 15.3904 21.2966C17.4383 20.7351 18.4767 19.9098 18.4767 18.8436C18.4767 18.1301 18.0107 17.5238 17.0916 17.0417Z" fill="white"/>
<path d="M8.5119 18.1624C8.66938 18.4116 8.94361 18.5626 9.23833 18.5626C9.53306 18.5626 9.80729 18.4116 9.96477 18.1624C10.7527 16.9158 11.7782 15.8224 12.77 14.7651C14.708 12.699 16.7119 10.5626 16.715 7.38965C16.7126 5.40061 15.931 3.53842 14.514 2.14605C13.1056 0.762142 11.232 0 9.23833 0C7.2459 0 5.37894 0.76313 3.98137 2.1488C2.58002 3.53824 1.80701 5.39954 1.80469 7.39154C1.80774 10.5678 3.80189 12.708 5.73038 14.7778C6.71197 15.8313 7.72694 16.9206 8.5119 18.1624ZM9.23833 1.71876C12.4096 1.71876 14.9926 4.26365 14.9962 7.38986C14.9938 9.88202 13.3824 11.6 11.5165 13.5892C10.7441 14.4126 9.95244 15.2566 9.23885 16.1988C8.53205 15.2633 7.75036 14.4244 6.98792 13.6061C5.13023 11.6123 3.5259 9.89045 3.52345 7.39167C3.5271 4.21058 6.0374 1.71876 9.23833 1.71876Z" fill="white"/>
</svg>
