<svg width="18" height="21" viewBox="0 0 18 21" fill="none" xmlns="http://www.w3.org/2000/svg">
<path d="M9.33812 10.9163C9.78712 10.8558 10.102 10.4427 10.0414 9.9937C9.98075 9.54471 9.56765 9.23 9.11873 9.29045C9.01989 9.30378 8.91878 9.31055 8.81829 9.31055C7.59706 9.31055 6.60346 8.31695 6.60346 7.09572C6.60346 5.87449 7.59706 4.88089 8.81829 4.88089C10.0395 4.88089 11.0331 5.87449 11.0331 7.09572C11.0331 7.21667 11.0234 7.33783 11.0041 7.45588C10.9312 7.90303 11.2346 8.32462 11.6817 8.39751C12.1294 8.47035 12.5505 8.167 12.6234 7.71989C12.6568 7.51481 12.6738 7.30482 12.6738 7.09568C12.6738 4.96977 10.9442 3.24023 8.81834 3.24023C6.69243 3.24023 4.96289 4.96977 4.96289 7.09568C4.96289 9.22159 6.69243 10.9511 8.81834 10.9511C8.99195 10.9511 9.16688 10.9394 9.33812 10.9163Z" fill="#FF5F46"/>
<path d="M16.3145 16.2673C15.6835 15.9363 14.8171 15.6574 13.7394 15.4384C13.2953 15.3483 12.8625 15.6351 12.7722 16.079C12.682 16.5229 12.9688 16.956 13.4128 17.0462C15.0751 17.3839 15.7566 17.7893 15.9532 17.9859C15.8083 18.131 15.3241 18.4953 13.9014 18.8378C12.5039 19.1742 10.6987 19.3595 8.8183 19.3595C6.93787 19.3595 5.13274 19.1742 3.73527 18.8378C2.31253 18.4953 1.8283 18.1311 1.68348 17.9859C1.88006 17.7893 2.56153 17.3839 4.22389 17.0462C4.66784 16.956 4.95462 16.5229 4.86442 16.079C4.77423 15.635 4.34111 15.3484 3.8972 15.4384C2.81956 15.6574 1.95319 15.9363 1.32217 16.2673C0.444853 16.7275 0 17.3062 0 17.9873C0 19.005 0.991177 19.7928 2.94597 20.3287C4.52527 20.7617 6.61077 21.0001 8.8183 21.0001C11.0258 21.0001 13.1113 20.7617 14.6906 20.3287C16.6454 19.7928 17.6366 19.005 17.6366 17.9873C17.6366 17.3062 17.1918 16.7275 16.3145 16.2673Z" fill="#FF5F46"/>
<path d="M8.12491 17.3366C8.27523 17.5744 8.53699 17.7186 8.81832 17.7186C9.09964 17.7186 9.3614 17.5744 9.51172 17.3366C10.2638 16.1467 11.2427 15.103 12.1894 14.0937C14.0393 12.1216 15.9521 10.0824 15.955 7.05366C15.9528 5.15506 15.2067 3.37753 13.8541 2.04847C12.5098 0.727489 10.7213 0 8.81832 0C6.91647 0 5.1344 0.728433 3.80037 2.0511C2.46274 3.37737 1.72487 5.15403 1.72266 7.05546C1.72557 10.0873 3.62905 12.1302 5.46986 14.1059C6.40682 15.1115 7.37564 16.1512 8.12491 17.3366ZM8.81832 1.64061C11.8454 1.64061 14.3109 4.06979 14.3144 7.05386C14.3121 9.43271 12.7739 11.0725 10.9929 12.9714C10.2557 13.7573 9.49995 14.563 8.81881 15.4623C8.14415 14.5693 7.39799 13.7685 6.67022 12.9874C4.897 11.0844 3.36561 9.44075 3.36327 7.05559C3.36676 4.01914 5.76292 1.64061 8.81832 1.64061Z" fill="#FF5F46"/>
</svg>
