<svg width="71" height="79" viewBox="0 0 71 79" fill="none" xmlns="http://www.w3.org/2000/svg">
<path fill-rule="evenodd" clip-rule="evenodd" d="M19.7758 15.2619C20.048 15.1922 20.8116 15.2108 21.6888 15.8424C22.1477 16.1728 22.4554 16.67 22.7641 17.1689C23.1931 17.8619 23.624 18.5582 24.465 18.8147C25.3068 19.0715 27.9264 18.5496 30.158 18.1051C31.7611 17.7857 33.1638 17.5063 33.5636 17.584C34.3288 17.7325 35.5467 18.6831 36.06 19.1398C36.0055 19.3565 35.9293 19.8133 36.06 19.9061C36.1245 19.952 36.2254 19.8745 36.3472 19.7813C36.5332 19.6386 36.7674 19.4589 36.9931 19.6274C37.2153 19.7933 37.0243 20.4773 36.8676 21.0382C36.761 21.4199 36.6703 21.7445 36.7365 21.8103C36.8235 21.8968 37.1485 21.5818 37.4792 21.2613C37.7696 20.9798 38.0645 20.6942 38.2062 20.6724C38.5096 20.626 38.5795 20.8582 38.6029 21.0208C38.6128 21.0896 38.5181 21.2708 38.4162 21.4657C38.2775 21.7312 38.1255 22.0219 38.2062 22.0889C38.2859 22.155 38.577 21.943 38.8389 21.7521C39.0374 21.6076 39.2191 21.4752 39.2794 21.4852C39.4195 21.5084 39.9327 21.996 39.9559 22.1818C39.9643 22.2475 39.8822 22.4695 39.784 22.7355V22.7356C39.6042 23.2225 39.3701 23.8566 39.5361 23.9466C39.676 24.0226 40.0586 23.6568 40.4232 23.3083C40.7271 23.0177 41.0186 22.7391 41.1458 22.7391C41.4258 22.7391 41.4724 22.9016 41.4724 23.1107C41.4724 23.1831 41.4192 23.4059 41.3546 23.6768C41.2326 24.1882 41.0695 24.871 41.1458 25.038C41.2625 25.2934 42.0323 24.7594 42.289 24.4575C42.4943 24.216 42.6389 23.5983 42.6855 23.3196H43.7354C43.7199 23.5596 43.6374 24.2903 43.4322 25.2934C43.2958 25.9596 43.1266 26.4161 43.0118 26.7255C42.9105 26.9985 42.8519 27.1569 42.8956 27.2441C42.9889 27.4298 43.8287 26.9885 44.6453 25.9204C45.067 25.3687 45.2149 24.8603 45.3204 24.4978C45.4192 24.1583 45.4808 23.9466 45.6951 23.9466C45.9652 23.9466 46.0187 24.2139 46.0932 24.5855C46.141 24.8238 46.1974 25.1051 46.325 25.3863C46.6516 26.1061 46.9083 26.5706 47.0949 26.5009C47.1539 26.479 47.2547 26.3387 47.3805 26.1639C47.6531 25.785 48.0429 25.2433 48.3781 25.3863C48.8679 25.5953 48.8912 27.2208 48.728 27.5692C48.5647 27.9174 49.9877 27.2905 50.4544 26.0598C50.8277 25.0752 50.8587 24.2408 50.8277 23.9466C50.9599 23.8305 51.2569 23.6122 51.3876 23.668C51.5182 23.7236 51.5042 25.007 51.4809 25.6418C51.5275 25.665 51.6442 25.6789 51.7376 25.5488C51.8542 25.3863 51.6675 26.4777 51.4809 26.71C51.2943 26.9422 52.5774 26.5706 53.0207 25.5488C53.3753 24.7315 53.3239 24.0007 53.2539 23.7376C53.4017 23.668 53.7252 23.5704 53.8372 23.7376C53.9771 23.9466 54.1638 24.5039 54.2338 25.3863C54.2689 25.8294 54.2394 26.3077 54.216 26.6858V26.6859C54.1928 27.0607 54.1757 27.3371 54.2338 27.3833C54.3504 27.4763 55.4703 26.5474 55.6569 25.5488C55.8062 24.7501 55.7191 24.0086 55.6569 23.7376H55.9369C55.9991 23.8305 56.1188 24.0534 56.1002 24.2021C56.0768 24.3878 56.3102 24.1556 56.3802 23.9466L56.4735 23.668H56.7067C56.7456 23.8924 56.7721 24.4714 56.5668 24.9915C56.6679 25.007 56.954 24.922 57.29 24.4575C57.5393 24.1128 57.6242 23.9856 57.6418 23.9524C57.6649 24.0255 57.6945 24.1966 57.6399 24.3413C57.57 24.5272 58.0832 24.3878 58.2465 23.7376C58.3772 23.2174 58.3009 22.9481 58.2465 22.8784C58.9309 22.3056 60.2015 21.016 59.8096 20.4401C59.3197 19.7203 57.4067 19.8364 56.8233 19.9758C56.733 19.9974 56.547 20.0568 56.2808 20.1419C54.8282 20.6061 50.9882 21.8335 47.2816 21.8335C43.2032 21.8335 41.4849 20.93 39.8947 20.0937L39.8944 20.0936C39.7746 20.0306 39.6554 19.968 39.5361 19.9061C38.1736 19.2001 36.4954 17.6459 35.8266 16.957C36.7909 17.7542 39.634 19.5856 43.1055 20.4401C47.2094 21.4504 49.6023 20.9444 52.1983 20.3955C52.3472 20.364 52.4968 20.3324 52.6474 20.3009C53.9437 20.0297 54.889 19.7232 55.6521 19.4759C56.5231 19.1935 57.1566 18.9881 57.8032 19.0004C58.7738 19.019 59.5452 19.2868 59.8096 19.4185C59.833 17.2589 59.539 12.5775 58.1765 11.1284C57.5793 10.4968 56.3723 10.3389 55.8436 10.3389C55.2292 9.73514 53.8559 8.45797 53.2773 8.17931C52.6987 7.90067 52.1653 7.92388 51.9708 7.97032C51.5509 7.56783 50.5477 6.67457 49.8944 6.32161C49.2412 5.96865 48.4247 5.83396 48.0981 5.81074C47.7559 5.4392 46.9036 4.68218 46.2317 4.62645C45.8317 4.59328 45.3896 4.78123 44.9579 4.96468C44.4831 5.16651 44.021 5.36291 43.6421 5.25343C43.2351 5.1358 43.0497 4.76807 42.8739 4.41936C42.7374 4.14849 42.6067 3.88908 42.3823 3.76726C42.1636 3.64855 41.5428 3.72791 40.7488 3.8294C39.6789 3.96615 38.2947 4.14308 37.1565 3.92981C35.1734 3.55827 33.4703 2.7223 32.2572 1.8399C31.6538 1.40097 31.1831 0.910364 30.8136 0.525209C30.4402 0.136028 30.0328 0.0188295 29.8335 0.00715839C28.3454 -0.0799482 27.8073 0.647721 26.9986 1.11215C26.2131 1.08892 24.605 1.21291 23.8585 1.49157C23.4453 1.64578 23.2654 1.85464 23.0453 2.11005C22.7684 2.43149 22.4279 2.82671 21.4789 3.27962C20.9715 3.52172 20.5491 3.7082 20.1831 3.86972C19.3207 4.25043 18.7721 4.49257 18.166 4.99799C17.7422 5.35148 17.4139 6.13609 16.9134 7.33259C16.3946 8.57276 15.6907 10.2554 14.5033 12.3591C13.6267 13.9122 12.7699 15.3603 12.0269 16.6162C10.7924 18.7026 9.87211 20.258 9.69734 20.8814C9.5334 21.4661 9.62548 22.035 9.7112 22.5645C9.77186 22.9393 9.82934 23.2943 9.79066 23.6215C9.77402 23.7623 9.74551 23.951 9.71148 24.1764L9.71146 24.1766C9.55465 25.2148 9.28069 27.0288 9.51071 28.4979C9.79066 30.2861 12.5202 36.4164 13.3368 36.6254C13.7857 36.7404 15.5394 36.5674 17.1979 36.4039C18.556 36.2701 19.8503 36.1424 20.3124 36.1843C20.7912 36.2276 21.2953 36.377 21.7917 36.5242C22.3596 36.6924 22.9173 36.8577 23.4152 36.8577C24.3484 36.8577 24.9317 36.1378 24.7684 35.9753C24.735 35.9422 24.6404 35.8834 24.4934 35.7921C23.9194 35.4359 22.5457 34.5837 20.8956 32.8171C19.6591 31.4936 18.7415 29.4655 18.656 28.9392C18.0649 29.5662 16.5283 30.7923 15.1098 30.6808C13.9114 30.5866 13.6083 30.0681 13.4008 29.7133C13.3013 29.543 13.2238 29.4105 13.0802 29.3804C12.928 29.3485 12.7676 29.3932 12.5952 29.4414C12.2653 29.5333 11.8914 29.6376 11.4471 29.2411C10.9058 28.7581 11.1127 27.3369 11.2838 26.6868C11.2838 27.2053 11.4377 28.2936 12.0537 28.4979C12.4625 28.6336 12.7398 28.5663 12.9937 28.5045C13.218 28.4501 13.4242 28.4 13.6867 28.4979C13.9419 28.5933 14.1389 28.8235 14.333 29.0504C14.5648 29.3213 14.7924 29.5873 15.1098 29.6126C15.5764 29.6498 17.365 28.4206 18.236 27.7317C18.0727 27.4453 17.8301 26.4498 17.6994 25.5953C17.5688 24.7408 17.6917 23.606 17.7928 23.1107C17.8292 23.257 17.8679 23.4143 17.9088 23.5809L17.9089 23.5813C18.3318 25.3011 19.0003 28.0196 19.9624 30.0307C21.0633 32.3317 22.9126 33.7355 24.3206 34.8042C24.6176 35.0296 24.8951 35.2403 25.1416 35.4411C25.7327 35.4334 27.4093 35.5898 29.3876 36.2772C31.235 36.9189 34.0977 38.5326 36.1087 39.6662C36.7898 40.05 37.3731 40.379 37.7864 40.5963C39.4195 41.4556 43.9698 43.5912 45.1352 43.5221C46.7215 43.4282 48.0023 42.0661 49.039 40.9635C49.2829 40.704 49.5134 40.4588 49.7312 40.2479C48.7669 40.1551 46.0964 39.5421 43.1288 37.8329C40.8191 36.5027 37.3153 32.8676 34.724 30.1792C33.1539 28.55 31.9187 27.2685 31.4872 27.0582C30.7629 26.7051 29.0921 26.7062 27.7278 26.7072C26.9394 26.7078 26.2533 26.7083 25.9115 26.6403C24.9783 26.4545 24.0451 25.7347 23.5551 24.6432C23.338 24.1593 22.9919 23.0373 22.609 21.7959C22.1285 20.2375 21.5899 18.4912 21.1756 17.584C20.6803 16.4995 20.2513 15.9266 19.9959 15.5856C19.8903 15.4446 19.8144 15.3433 19.7758 15.2619ZM22.622 18.4896C23.0808 20.208 24.1337 24.0024 25.0483 24.9683C25.6926 25.6489 27.2336 25.6877 28.7148 25.725C29.8618 25.7539 30.9727 25.7819 31.604 26.1061C32.2277 26.4266 33.4298 27.6891 34.9447 29.28C36.9427 31.3784 39.4849 34.0482 41.9623 35.8824C44.7852 37.9723 48.2147 39.412 50.1278 39.6442C50.2678 39.4197 50.5058 38.8082 50.3377 38.158C50.1697 37.5079 49.5523 37.0976 49.2646 36.9737C49.2023 36.8887 49.0546 36.7694 48.9612 36.9737C48.8679 37.1782 48.6269 37.2293 48.518 37.2293C48.518 37.1209 48.476 36.8995 48.308 36.8809C48.1401 36.8623 47.787 37.3221 47.6315 37.5543C47.6081 37.6007 47.5382 37.6797 47.4449 37.624C47.3966 37.5951 47.3444 37.3955 47.2848 37.168C47.2005 36.8455 47.1014 36.4669 46.9782 36.4397C46.8631 36.4142 46.6075 36.7938 46.381 37.1304C46.1945 37.4075 46.0277 37.6554 45.975 37.624C45.9036 37.5812 45.9021 37.0505 45.9011 36.6351V36.635C45.9004 36.3723 45.8998 36.1558 45.8817 36.1378C45.8639 36.12 45.7706 36.2524 45.6544 36.417L45.6543 36.4172C45.4676 36.6821 45.2215 37.031 45.1352 36.9737C45.0627 36.9256 45.0027 36.4851 44.9455 36.0652C44.8923 35.6742 44.8415 35.301 44.7852 35.2786C44.7291 35.2563 44.6407 35.4166 44.5484 35.584C44.4487 35.7644 44.3447 35.9529 44.272 35.9288C44.1949 35.9032 44.1957 35.3429 44.1963 34.8327C44.1968 34.416 44.1973 34.0328 44.1553 34.0014C44.1104 33.9679 43.8978 34.2467 43.6764 34.5369C43.4379 34.8495 43.1894 35.1754 43.1288 35.1392C43.0777 35.1087 43.0356 34.7711 42.9888 34.3953C42.9285 33.9126 42.8605 33.3672 42.7556 33.3281C42.6778 33.299 42.5232 33.548 42.3438 33.8368C42.0927 34.2411 41.7932 34.7233 41.589 34.6284C41.3746 34.5289 41.3091 33.8184 41.2583 33.2674C41.2262 32.9195 41.2 32.6351 41.1458 32.6082C41.0852 32.5781 40.9375 32.7478 40.7759 32.9332C40.5641 33.1764 40.3286 33.4466 40.2359 33.3281C40.143 33.209 40.1407 32.8418 40.1388 32.5302C40.1375 32.2945 40.1362 32.0908 40.096 32.0509C40.054 32.009 39.9363 32.1368 39.8088 32.2749C39.6533 32.4437 39.4835 32.6278 39.4195 32.5385C39.3604 32.4562 39.3909 31.9816 39.4205 31.5236C39.4493 31.0766 39.477 30.6455 39.4195 30.6112C39.3711 30.5824 39.2073 30.8155 39.0186 31.084C38.7507 31.4653 38.4324 31.918 38.3229 31.7955C38.2198 31.6799 38.3019 30.9614 38.3763 30.3105C38.4366 29.7836 38.4918 29.301 38.4396 29.2178C38.3757 29.116 38.2698 29.1955 38.1716 29.269C38.0908 29.3298 38.0151 29.3864 37.973 29.334C37.9283 29.2783 37.9531 28.9992 37.9784 28.7157C38.0058 28.4069 38.0338 28.0931 37.973 28.0568C37.9178 28.0238 37.6177 28.3333 37.3042 28.6566C36.9544 29.0173 36.588 29.3952 36.5266 29.334C36.4608 29.2685 36.4766 28.9524 36.4903 28.6764C36.501 28.4626 36.5104 28.2729 36.4798 28.2425C36.4503 28.2132 36.3252 28.2706 36.1783 28.338C35.9769 28.4305 35.7344 28.5418 35.64 28.4748C35.5524 28.4125 35.5924 28.1898 35.6302 27.9788C35.6629 27.7966 35.6941 27.623 35.64 27.5692C35.5847 27.5141 35.435 27.5425 35.2756 27.5729C35.0985 27.6065 34.9094 27.6424 34.8234 27.5692C34.7313 27.4904 34.7729 27.1381 34.8099 26.8251C34.8384 26.5837 34.8641 26.3658 34.8234 26.3152C34.7774 26.2578 34.6344 26.3478 34.4932 26.4368C34.3485 26.5279 34.2056 26.6178 34.1702 26.5474C34.1378 26.4829 34.1355 26.2294 34.133 25.9664C34.13 25.6612 34.127 25.3434 34.0769 25.2934C34.0448 25.2614 33.9905 25.3369 33.9121 25.4458C33.7631 25.653 33.5269 25.9813 33.1904 25.9204C32.9153 25.8707 32.801 25.7409 32.6824 25.606C32.5798 25.4893 32.4737 25.3689 32.2572 25.2934C31.8839 25.1634 31.3551 25.2392 31.1374 25.2934C31.0285 24.9838 30.7734 24.0394 30.6241 22.7391C30.4375 21.1136 30.4841 20.2312 30.5541 20.1383C30.6102 20.064 32.5839 18.9927 33.5636 18.4664C31.4562 19.1011 27.5213 20.2312 24.7451 19.9061C23.8965 19.8067 22.8086 18.8379 22.622 18.4896ZM31.1374 23.1107C31.1684 23.2887 31.254 23.7329 31.3473 24.0859C31.4407 24.4389 31.5573 24.6974 31.604 24.7826C31.775 24.7594 32.1685 24.7408 32.3738 24.8523C32.5791 24.9637 32.9571 25.2702 33.1203 25.4096C33.3689 25.3507 33.5537 25.1795 33.7048 25.0396C33.8515 24.9037 33.9665 24.7974 34.0769 24.8523C34.4037 25.0148 34.4431 25.3626 34.4755 25.6489C34.4871 25.7509 34.4977 25.8452 34.5202 25.9204C34.668 25.8894 35.0847 25.8044 35.1967 25.9901C35.3087 26.1758 35.3368 26.857 35.3368 27.1744C35.5001 27.1589 35.8406 27.1511 35.8966 27.2441C35.9526 27.3369 35.9821 27.6852 35.99 27.8478C36.2155 27.7781 36.6852 27.6806 36.7598 27.8478C36.8345 28.015 36.9154 28.1807 36.9464 28.2425C37.2264 27.9793 37.8517 27.4763 38.1129 27.5692C38.3742 27.662 38.4396 28.4129 38.4396 28.7767C38.494 28.7302 38.6308 28.6652 38.7428 28.7767C38.8201 28.8534 38.7908 29.4606 38.7653 29.9927C38.7537 30.2326 38.7428 30.4572 38.7428 30.6112C38.8517 30.4795 39.2748 30.0352 39.5361 30.1467C39.7973 30.2582 39.816 31.184 39.7927 31.6329C39.8938 31.5787 40.138 31.5029 40.3059 31.6329C40.4739 31.7629 40.547 32.1361 40.5626 32.3063C40.8192 31.6329 40.8192 30.1839 40.166 28.3819C39.8727 27.5729 39.4206 27.1417 38.9698 26.7117C38.6676 26.4233 38.3658 26.1355 38.1129 25.7347C37.8657 25.3429 37.7608 25.0662 37.6715 24.8307C37.5332 24.4662 37.4326 24.2009 36.8998 23.7608C36.1336 23.128 34.9004 23.4135 34.012 23.6192C33.629 23.708 33.3102 23.7818 33.1203 23.7608C32.7331 23.7179 32.3894 23.2887 32.2572 23.1107H31.1374ZM41.1458 31.2148C40.9032 30.156 40.8114 29.1018 40.9125 28.707C41.1397 28.7522 41.1702 29.0029 41.1956 29.2115C41.2093 29.3241 41.2215 29.4244 41.2625 29.4733C41.2965 29.5139 41.4399 29.3373 41.5985 29.1421C41.7949 28.9004 42.0145 28.6299 42.079 28.707C42.1724 28.8185 42.1179 29.512 42.079 29.8448C42.1489 29.8061 42.3077 29.7519 42.3823 29.8448C42.4241 29.8969 42.4285 30.1546 42.4331 30.4335C42.4389 30.7762 42.4451 31.1509 42.5223 31.2148C42.5916 31.2724 42.741 31.0395 42.894 30.801C43.05 30.5578 43.2097 30.3088 43.2921 30.3557C43.3769 30.4039 43.3548 30.7893 43.3336 31.1621C43.3138 31.5083 43.2948 31.8436 43.3622 31.8883C43.4363 31.9376 43.5368 31.8888 43.6321 31.8427C43.7167 31.8017 43.7972 31.7627 43.852 31.7955C43.9105 31.8303 43.9162 32.1275 43.9221 32.43C43.9279 32.7313 43.9338 33.0379 43.9921 33.0958C44.0467 33.1501 44.239 32.9808 44.4452 32.7995C44.6796 32.5932 44.9316 32.3715 45.0186 32.4456C45.0928 32.509 45.1237 32.798 45.1571 33.1118C45.1973 33.4881 45.2413 33.9001 45.3685 34.0014C45.4902 34.0984 45.6756 33.7904 45.8583 33.4869C46.0253 33.2092 46.1902 32.9353 46.3017 32.9797C46.4156 33.025 46.4183 33.3083 46.421 33.6C46.4239 33.9057 46.427 34.2206 46.5583 34.2801C46.6989 34.3437 47.0075 34.0172 47.2808 33.7278C47.5064 33.489 47.7081 33.2755 47.7714 33.3281C47.8834 33.4209 47.8182 34.4969 47.7714 35.0232C47.857 34.9922 48.0514 34.9721 48.1447 35.1392C48.1993 35.2369 48.1722 35.3194 48.1494 35.3891C48.1234 35.4684 48.1028 35.531 48.2147 35.5805C48.3129 35.6239 48.3857 35.6267 48.4519 35.6293C48.5273 35.6322 48.5943 35.6348 48.6813 35.6965C48.7486 35.7444 48.7723 35.808 48.7917 35.8597C48.8192 35.9336 48.8378 35.9835 48.9612 35.9288C49.1292 35.8545 49.2801 35.8979 49.3345 35.9288C49.3112 36.0526 49.2319 36.3097 49.1013 36.3469C49.0238 36.3688 49.0146 36.4274 49.0039 36.4953C48.992 36.5706 48.9783 36.6573 48.8679 36.7183C48.7 36.8112 48.6269 36.757 48.6113 36.7183C48.6036 36.6486 48.5507 36.4954 48.4014 36.4397C48.2521 36.3839 47.9192 36.4629 47.7714 36.5094C47.6626 36.3004 47.3749 35.8824 47.0949 35.8824C46.815 35.8824 46.4494 36.0526 46.3017 36.1378C46.294 35.9908 46.2364 35.6734 46.0683 35.5805C45.9004 35.4876 45.6252 35.6192 45.5084 35.6965C45.3841 35.3715 45.1119 34.7585 45.0186 34.6284C44.9252 34.4984 44.8242 34.5046 44.7852 34.5587C44.7585 34.4598 44.739 34.3219 44.7186 34.1772C44.6732 33.8578 44.6232 33.5057 44.482 33.4674C44.2766 33.4116 43.7043 33.8234 43.5488 34.0014C43.4866 33.6066 43.3015 32.7893 43.0588 32.6779C42.8613 32.5871 42.5318 32.8237 42.2945 32.9942H42.2943C42.2401 33.0331 42.1909 33.0686 42.1489 33.0958C41.939 32.9488 41.3885 32.2738 41.1458 31.2148ZM28.0383 1.89321C28.041 2.11708 28.044 2.35094 28.1978 2.55976C28.3584 2.77762 28.6558 2.74111 28.896 2.71163C29.0399 2.69396 29.1632 2.67882 29.2244 2.7223C29.2893 2.76849 29.3617 2.88449 29.4501 3.02645C29.5842 3.24137 29.7554 3.51581 29.9942 3.6976C30.3115 3.93911 30.9352 4.29362 31.2073 4.44068C31.1428 4.45604 31.0716 4.47202 30.9955 4.48911L30.9953 4.48917C30.4575 4.60996 29.6739 4.78601 29.2244 5.18376C28.2795 6.01973 28.1045 6.66993 27.9878 7.32013C28.5011 6.6467 29.5322 5.68534 30.2041 5.46242C31.0441 5.18376 31.324 5.23021 31.6506 5.46242C31.7276 5.51711 31.8976 5.71861 32.1307 5.99475C32.8872 6.89116 34.3078 8.57408 35.36 8.57408C36.167 8.57408 36.3805 8.42245 36.5837 8.27826C36.7271 8.17649 36.8652 8.07843 37.2031 8.03999C37.4353 8.01358 37.5469 8.10087 37.6548 8.18519C37.7745 8.27879 37.8897 8.36873 38.1596 8.29543C38.3905 8.23275 38.5269 8.14189 38.6454 8.06299C38.7903 7.96649 38.9084 7.88788 39.1394 7.90067C39.3445 7.912 39.4105 8.0064 39.4759 8.10004C39.5446 8.19815 39.6126 8.29543 39.8393 8.29543C40.0516 8.29543 40.1621 8.21558 40.2634 8.14254C40.3736 8.06303 40.4725 7.99157 40.6792 8.03999C40.8459 8.07901 40.926 8.17129 41.0166 8.27554C41.1415 8.41945 41.2863 8.58617 41.7058 8.66697C42.0896 8.74092 42.2369 8.68403 42.3813 8.62825C42.5089 8.57894 42.6342 8.5305 42.9189 8.57408C43.2549 8.62554 43.3547 8.74823 43.4481 8.86325C43.5235 8.95587 43.5948 9.04352 43.782 9.08495C43.9593 9.12414 44.1988 9.11786 44.4428 9.11145C44.777 9.10267 45.1196 9.09368 45.3218 9.20105C45.4818 9.28598 45.6516 9.39518 45.8555 9.52641C46.0977 9.68225 46.3884 9.86917 46.7683 10.0835C47.3282 10.3993 47.9659 10.5711 48.2147 10.6176C47.7793 10.1299 46.7263 9.05709 45.9984 8.66697C45.4318 8.36328 45.2361 8.28474 45.0564 8.21262C44.9475 8.16892 44.8446 8.12759 44.6686 8.03999C44.4387 7.92559 44.3787 7.82809 44.324 7.73918C44.2677 7.64761 44.217 7.56515 43.9921 7.48268C43.5696 7.32775 42.257 7.32049 42.1954 7.32014L42.1932 7.32013H42.1957C42.2657 7.32013 42.0323 6.8557 41.2858 6.5306C40.6885 6.27053 39.8393 6.31388 39.4894 6.36806C39.4428 6.14358 39.2142 5.68071 38.6728 5.62498C38.1316 5.56924 37.5297 5.86492 37.2964 6.01973C37.1176 5.83396 36.5918 5.46242 35.9199 5.46242C35.248 5.46242 34.6445 5.75656 34.4269 5.90363C33.3926 4.68064 31.1794 2.13248 30.6008 1.72378C30.0222 1.31509 28.794 0.947573 27.9878 1.46835C28.0346 1.59856 28.0364 1.74365 28.0383 1.89321ZM19.9391 11.6857C20.0557 11.6548 20.5457 11.1749 20.5457 10.4782C20.5457 10.3888 20.531 10.1957 20.5111 9.93389L20.5111 9.93376V9.93371L20.5111 9.93351C20.4245 8.79416 20.2391 6.35411 20.7323 5.48564C21.1715 4.71217 22.8095 4.0848 23.9279 3.65644C24.3541 3.49323 24.7047 3.3589 24.885 3.25639C25.4076 2.95916 25.8181 2.73005 25.9582 2.65265C25.9037 2.85389 25.5943 3.40501 24.7917 3.99948C24.4922 4.22137 24.1655 4.42051 23.8367 4.62097C23.0644 5.09179 22.28 5.57 21.8055 6.36806C21.5617 6.77798 21.5747 7.60774 21.5882 8.46651C21.6026 9.38888 21.6176 10.3447 21.3155 10.8498C20.849 11.63 20.2035 11.7322 19.9391 11.6857ZM31.6506 9.20105C30.0642 8.94098 29.6365 8.08644 29.6209 7.69167C29.7375 6.80926 30.5728 6.58633 31.4872 6.80926C32.4018 7.03217 32.9571 8.14062 33.1671 8.66697C33.2915 8.95337 33.2371 9.46114 31.6506 9.20105ZM51.4809 12.0805C51.5042 12.3824 52.1808 13.3112 53.0673 13.7757C53.2666 13.8801 53.4742 13.9821 53.6797 14.0831V14.0833H53.68C54.3884 14.4317 55.0719 14.7678 55.307 15.1457C55.3711 15.249 55.425 15.3386 55.4711 15.4157C55.643 15.7026 55.7099 15.8142 55.8202 15.7959C55.9602 15.7727 55.8902 14.4955 54.9337 13.288C54.1685 12.322 52.313 12.0805 51.4809 12.0805ZM56.7534 12.8933C56.0069 12.1502 55.5636 11.3839 55.6335 11.0588C56.1857 11.1052 57.416 11.5 57.92 12.7075C58.4238 13.915 58.1299 14.7741 57.92 15.0528C57.92 14.9135 57.8919 14.5605 57.7799 14.2633C57.6399 13.8917 57.5 13.6363 56.7534 12.8933ZM10.3972 25.1309C10.7239 24.9141 11.4144 24.3924 11.5637 24.0396C11.6478 23.8407 11.5946 23.6843 11.5384 23.5194C11.4699 23.3183 11.3971 23.1045 11.5637 22.7856C11.867 22.2051 13.6634 20.9046 13.99 20.8814C14.0158 20.8795 14.0418 20.878 14.0679 20.8764C14.3719 20.8583 14.6942 20.8391 15.0165 20.3473C15.1178 20.1928 15.2804 19.7632 15.4798 19.2362C15.831 18.3084 16.2966 17.0785 16.7429 16.5157C17.3028 15.8099 18.0338 15.3392 18.3293 15.1922C18.376 15.4011 18.2314 15.9352 18.1194 16.2138C18.0639 16.3521 17.7734 16.9104 17.4242 17.5816H17.4242L17.4242 17.5818C16.893 18.6028 16.226 19.8849 16.043 20.3473C15.9568 20.5651 15.9065 20.7228 15.8672 20.8457C15.7684 21.1549 15.7405 21.2424 15.3898 21.5084C15.0796 21.7436 14.9003 21.7608 14.7039 21.7795C14.5901 21.7905 14.4706 21.802 14.3166 21.8567C13.6634 22.0889 12.5669 23.041 12.4502 23.3196C12.4006 23.4382 12.4144 23.6494 12.4285 23.8672C12.4477 24.1611 12.4676 24.4669 12.3336 24.5736C11.6337 25.1309 11.0038 25.1309 10.3972 25.1309Z" fill="white"/>
<path d="M32.3215 7.78854C32.4038 8.254 32.1574 8.68618 31.7712 8.75386C31.3848 8.82153 31.005 8.49907 30.9226 8.03361C30.8402 7.56816 31.0867 7.13597 31.473 7.0683C31.8593 7.00063 32.2392 7.32309 32.3215 7.78854Z" fill="white"/>
<path d="M0 52.4475H5.73993C6.64325 52.4475 7.50505 52.5514 8.32539 52.7595C9.14808 52.9675 9.87714 53.4461 10.5125 54.1955C11.1479 54.9447 11.4656 56.0509 11.4656 57.514C11.4656 59.2134 10.9512 60.5112 9.92218 61.407C9.60924 61.6859 9.27137 61.9069 8.90863 62.07C8.54825 62.2331 8.16299 62.3548 7.75282 62.4352C7.34265 62.5132 6.93841 62.5628 6.54012 62.5841C6.14418 62.603 5.65931 62.6124 5.08557 62.6124H4.44543H0V60.7546H0.483663C0.751577 60.7546 0.919904 60.7038 0.98867 60.6022C1.05979 60.5006 1.09535 60.3575 1.09535 60.1731V54.8868C1.09535 54.7025 1.06097 54.5595 0.992223 54.4579C0.923457 54.3563 0.753952 54.3053 0.483663 54.3053H0V52.4475ZM4.66237 55.2342V59.8541C4.66237 60.0974 4.70978 60.2499 4.80461 60.3113C4.89944 60.3728 5.05593 60.4035 5.27405 60.4035H5.75416C6.02444 60.4035 6.25323 60.3646 6.44054 60.2867C6.6302 60.2062 6.79617 59.9912 6.93841 59.6414C7.08068 59.2914 7.1518 58.7526 7.1518 58.0245V57.0496C7.1518 56.324 7.08185 55.7862 6.94198 55.4364C6.80209 55.0841 6.63612 54.8656 6.44409 54.7805C6.25441 54.6954 6.02444 54.6528 5.75416 54.6528H5.27405C4.99902 54.6528 4.82832 54.7 4.76195 54.7947C4.69555 54.8892 4.66237 55.0358 4.66237 55.2342Z" fill="white"/>
<path d="M12.2339 62.6124V60.7546H12.6571C12.8871 60.7546 13.0317 60.7086 13.091 60.6164C13.1526 60.5242 13.1834 60.3764 13.1834 60.1731V54.8868C13.1834 54.6835 13.1538 54.5359 13.0945 54.4437C13.0352 54.3515 12.8894 54.3053 12.6571 54.3053H12.2339V52.4475H17.7106V54.3053H17.2768C17.0729 54.3053 16.9342 54.3456 16.8607 54.4259C16.7871 54.5062 16.7505 54.6599 16.7505 54.8868V60.1731C16.7505 60.3977 16.7871 60.5514 16.8607 60.634C16.9342 60.7144 17.0729 60.7546 17.2768 60.7546H17.7106V62.6124H12.2339Z" fill="white"/>
<path d="M29.4713 56.0036H25.8011C25.749 54.9306 25.2439 54.3939 24.2862 54.3939C23.9495 54.3939 23.6792 54.4543 23.4753 54.5747C23.2738 54.6954 23.1101 54.9837 22.9844 55.4399C22.8612 55.8937 22.7996 56.5945 22.7996 57.5423C22.7996 58.405 22.8541 59.0599 22.9632 59.5065C23.0722 59.9508 23.2416 60.2534 23.4718 60.4142C23.704 60.5726 24.0241 60.6517 24.4318 60.6517C24.8492 60.6517 25.1954 60.5963 25.4703 60.4851C25.7477 60.374 25.8864 60.2074 25.8864 59.9851V59.9107C25.8864 59.698 25.8473 59.5479 25.7691 59.4605C25.6933 59.3729 25.5047 59.3292 25.2036 59.3292H24.8835V57.4714H30.2145V59.3292C29.9276 59.3434 29.7296 59.3932 29.6205 59.4783C29.5115 59.5609 29.457 59.7146 29.457 59.9391V62.6123H27.5793L27.373 61.8431H27.2876C26.8372 62.2188 26.3879 62.4825 25.9398 62.6336C25.4917 62.785 24.9499 62.8605 24.3146 62.8605C23.6672 62.8605 23.0521 62.8015 22.4688 62.6834C21.8879 62.5651 21.3522 62.3773 20.8613 62.1195C20.373 61.8619 19.9604 61.5322 19.6238 61.1303C18.8674 60.2322 18.4893 59.0363 18.4893 57.5423C18.4893 57.1287 18.5367 56.7127 18.6315 56.2943C18.7287 55.8736 18.8709 55.4682 19.0582 55.0782C19.2456 54.6883 19.4636 54.3431 19.7127 54.043C20.7368 52.8044 22.1689 52.1851 24.0087 52.1851C24.8408 52.1851 25.5937 52.2702 26.267 52.4403C26.9427 52.6082 27.5188 52.8575 27.9953 53.1885C28.4719 53.517 28.837 53.9201 29.0907 54.3974C29.3444 54.8727 29.4713 55.4079 29.4713 56.0036Z" fill="white"/>
<path d="M30.7266 62.6124V60.7546H31.1497C31.3798 60.7546 31.5244 60.7086 31.5836 60.6164C31.6452 60.5242 31.6761 60.3764 31.6761 60.1731V54.8868C31.6761 54.6835 31.6465 54.5359 31.5872 54.4437C31.5279 54.3515 31.3821 54.3053 31.1497 54.3053H30.7266V52.4475H36.2034V54.3053H35.7694C35.5655 54.3053 35.4268 54.3456 35.3533 54.4259C35.2799 54.5062 35.2431 54.6599 35.2431 54.8868V60.1731C35.2431 60.3977 35.2799 60.5514 35.3533 60.634C35.4268 60.7144 35.5655 60.7546 35.7694 60.7546H36.2034V62.6124H30.7266Z" fill="white"/>
<path d="M39.3119 62.6124V60.7546H39.9662C40.2081 60.7546 40.3706 60.7144 40.4534 60.634C40.5364 60.5514 40.578 60.3977 40.578 60.1731V54.6528H39.9662C39.7079 54.6528 39.5158 54.6693 39.3901 54.7025C39.2644 54.7356 39.1838 54.7828 39.1482 54.8443C39.1127 54.9058 39.0795 55.0074 39.0486 55.1491L38.8603 56.0037H36.9824L37.082 52.4475H47.6444L47.7476 56.0037H45.8661L45.6778 55.1491C45.6326 54.9388 45.5616 54.8041 45.4643 54.745C45.3695 54.6835 45.1347 54.6528 44.7602 54.6528H44.1484V60.1731C44.1484 60.3575 44.1829 60.5006 44.2516 60.6022C44.3203 60.7038 44.4851 60.7546 44.7459 60.7546H45.4004V62.6124H39.3119Z" fill="white"/>
<path d="M50.2119 52.4475H56.3039L58.7223 59.8825C58.7886 60.1022 58.8478 60.2676 58.9001 60.3789C58.9523 60.4899 59.0328 60.5809 59.1419 60.6517C59.2533 60.7203 59.4039 60.7546 59.5935 60.7546H59.8426V62.6124H54.4084V60.7546H54.8317C55.1327 60.7546 55.2833 60.6766 55.2833 60.5206C55.2833 60.4378 55.2442 60.3019 55.1659 60.1129H51.6274L51.5847 60.2902C51.5919 60.3682 51.6274 60.465 51.6913 60.5809C51.7554 60.6967 51.8691 60.7546 52.0328 60.7546H52.2106V62.6124H48.0142V60.7546H48.2773C48.5951 60.7546 48.8107 60.6944 48.9246 60.5737C49.0407 60.4508 49.164 60.211 49.2943 59.8541L51.0869 54.9896C51.0915 54.9731 51.0976 54.953 51.1045 54.9294C51.114 54.9034 51.1236 54.875 51.1331 54.8443C51.1472 54.8159 51.1568 54.7947 51.1615 54.7805C51.1663 54.7663 51.1709 54.7533 51.1758 54.7414C51.2136 54.6657 51.2327 54.5938 51.2327 54.5252C51.2327 54.3786 51.1022 54.3053 50.8414 54.3053H50.2119V52.4475ZM53.4481 55.0747L52.3992 57.9076H54.4511L53.5336 55.0747H53.4481Z" fill="white"/>
<path d="M60.5356 62.6124V60.7546H61.0159C61.2576 60.7546 61.42 60.7144 61.503 60.634C61.5861 60.5514 61.6275 60.3977 61.6275 60.1731V54.8868C61.6275 54.6599 61.5861 54.5062 61.503 54.4259C61.42 54.3456 61.2576 54.3053 61.0159 54.3053H60.5356V52.4475H66.3326V54.3053H65.7067C65.3651 54.3053 65.1945 54.4117 65.1945 54.6245V60.4035H66.6526C66.7451 60.4035 66.8387 60.4071 66.9336 60.4142C67.0307 60.419 67.102 60.4213 67.147 60.4213C67.4385 60.4213 67.6507 60.3398 67.7836 60.1767C67.9164 60.0136 68.0349 59.6389 68.1392 59.0528H70.0027V62.6124H60.5356Z" fill="white"/>
<path d="M17.395 68.8352H21.8548C22.8695 68.8352 23.71 68.8647 24.3762 68.9237C25.0425 68.9805 25.6339 69.1058 26.1507 69.2996C26.67 69.4911 27.0742 69.7912 27.3636 70.2001C27.6528 70.6091 27.7974 71.1515 27.7974 71.8275C27.7974 72.3452 27.6505 72.7954 27.3564 73.1784C27.0624 73.5589 26.6949 73.8485 26.2539 74.047L27.1715 75.529C27.2213 75.6093 27.3161 75.7688 27.4561 76.0076C27.5958 76.2441 27.7156 76.4247 27.8152 76.5502C27.9147 76.6729 28.038 76.7852 28.185 76.887C28.3321 76.9861 28.5134 77.0712 28.7291 77.1421V79.0001H23.3414V77.1421C23.5902 77.1045 23.7562 77.0677 23.8392 77.0323C23.9246 76.9968 23.9672 76.9071 23.9672 76.7628C23.9672 76.6424 23.8699 76.4247 23.6755 76.1105L23.0034 75.0077H22.0432V76.5608C22.0432 76.7404 22.0753 76.8822 22.1392 76.9861C22.2056 77.0902 22.3632 77.1421 22.6123 77.1421V79.0001H17.395V77.1421H17.8788C18.1371 77.1421 18.3008 77.0902 18.3696 76.9861C18.4383 76.8822 18.4727 76.7404 18.4727 76.5608V71.2744C18.4727 71.0948 18.4383 70.9529 18.3696 70.8489C18.3032 70.745 18.1396 70.693 17.8788 70.693H17.395V68.8352ZM22.0432 70.9412V72.9727H22.6123C23.4183 72.9727 23.8214 72.6099 23.8214 71.8842C23.8214 71.499 23.6886 71.246 23.4231 71.1256C23.1575 71.0026 22.8044 70.9412 22.3632 70.9412H22.0432Z" fill="white"/>
<path d="M29.4155 79.0001V77.1421H29.9134C30.1814 77.1421 30.3474 77.0974 30.4113 77.0075C30.4777 76.9176 30.5109 76.7687 30.5109 76.5608V71.2744C30.5109 71.0664 30.479 70.9175 30.4149 70.8276C30.3533 70.7379 30.1908 70.693 29.9277 70.693H29.4155V68.8352H38.4913V72.1006H36.6277C36.597 71.8806 36.5579 71.6679 36.5105 71.4624C36.4655 71.2826 36.3896 71.168 36.2828 71.1185C36.1761 71.0664 35.9462 71.0405 35.5929 71.0405H34.0779V72.7423H36.4073V74.9475H34.0779V76.7912H35.504C35.8856 76.7912 36.1525 76.7534 36.3043 76.6777C36.4558 76.5997 36.5733 76.459 36.6563 76.2558C36.7393 76.0668 36.7879 75.8776 36.802 75.6885H38.6798L38.5945 79.0001H29.4155Z" fill="white"/>
<path d="M45.5007 68.8352V70.693H45.3086C45.1451 70.693 45.0631 70.7662 45.0631 70.9127C45.0631 70.9836 45.1119 71.0748 45.209 71.1858L45.8634 72.0437H46.0234L46.6919 71.1858C46.8296 71.0037 46.8983 70.8927 46.8983 70.8525C46.8983 70.7461 46.8058 70.693 46.6209 70.693H46.404V68.8352H51.1375V70.693H50.7285C50.47 70.693 50.2484 70.7626 50.0635 70.9021C49.8809 71.0392 49.6165 71.3229 49.2703 71.7531L48.0043 73.3662L50.1026 76.1529C50.131 76.1908 50.157 76.2227 50.1808 76.2487C50.2068 76.2748 50.2247 76.2959 50.2342 76.3126C50.265 76.3432 50.3468 76.445 50.4794 76.6175C50.7522 76.9673 51.0343 77.1421 51.326 77.1421H51.806V79.0001H45.7602V77.1421C46.0803 77.1304 46.2403 77.0476 46.2403 76.8939C46.2403 76.8065 46.1585 76.6518 45.995 76.4295L45.3832 75.6034H45.2233L44.4799 76.5324C44.3733 76.6671 44.3199 76.7971 44.3199 76.9224C44.3199 77.0476 44.4847 77.121 44.8143 77.1421V79.0001H39.7145V77.1421H40.184C40.4684 77.1421 40.7067 77.0819 40.8988 76.9614C41.0907 76.8408 41.3622 76.5573 41.7132 76.1105L43.1819 74.2207L41.201 71.5793C41.1916 71.5651 41.15 71.512 41.0766 71.4198C41.003 71.3276 40.9284 71.2307 40.8525 71.1291C40.7553 70.9849 40.6533 70.8761 40.5467 70.8029C40.44 70.7296 40.2799 70.693 40.0665 70.693H39.7002V68.8352H45.5007Z" fill="white"/>
</svg>
