<svg width="71" height="79" viewBox="0 0 71 79" fill="none" xmlns="http://www.w3.org/2000/svg">
<path fill-rule="evenodd" clip-rule="evenodd" d="M19.7757 15.2619C20.0479 15.1922 20.8116 15.2108 21.6888 15.8424C22.1476 16.1728 22.4554 16.67 22.7641 17.1689C23.193 17.8619 23.624 18.5582 24.4649 18.8147C25.3068 19.0715 27.9264 18.5496 30.158 18.1051C31.761 17.7857 33.1638 17.5063 33.5636 17.584C34.3288 17.7325 35.5466 18.6831 36.0599 19.1398C36.0055 19.3565 35.9292 19.8133 36.0599 19.9061C36.1245 19.952 36.2254 19.8745 36.3471 19.7813C36.5331 19.6386 36.7673 19.4589 36.9931 19.6274C37.2152 19.7933 37.0242 20.4773 36.8675 21.0382C36.761 21.4199 36.6703 21.7445 36.7364 21.8103C36.8234 21.8968 37.1484 21.5818 37.4791 21.2613C37.7695 20.9798 38.0644 20.6942 38.2062 20.6724C38.5096 20.626 38.5794 20.8582 38.6029 21.0208C38.6127 21.0896 38.518 21.2708 38.4161 21.4657C38.2774 21.7312 38.1255 22.0219 38.2062 22.0889C38.2858 22.155 38.577 21.943 38.8388 21.7521C39.0373 21.6076 39.2191 21.4752 39.2794 21.4852C39.4194 21.5084 39.9326 21.996 39.9559 22.1818C39.9642 22.2475 39.8821 22.4695 39.784 22.7355V22.7356C39.6042 23.2225 39.3701 23.8566 39.536 23.9466C39.6759 24.0226 40.0585 23.6568 40.4231 23.3083C40.7271 23.0177 41.0185 22.7391 41.1457 22.7391C41.4258 22.7391 41.4724 22.9016 41.4724 23.1107C41.4724 23.1831 41.4192 23.4059 41.3545 23.6768C41.2325 24.1882 41.0695 24.871 41.1457 25.038C41.2624 25.2934 42.0323 24.7594 42.2889 24.4575C42.4942 24.216 42.6389 23.5983 42.6855 23.3196H43.7354C43.7198 23.5596 43.6373 24.2903 43.4321 25.2934C43.2957 25.9596 43.1265 26.4161 43.0118 26.7255C42.9105 26.9985 42.8518 27.1569 42.8955 27.2441C42.9888 27.4298 43.8287 26.9885 44.6452 25.9204C45.067 25.3687 45.2148 24.8603 45.3204 24.4978C45.4192 24.1583 45.4807 23.9466 45.695 23.9466C45.9651 23.9466 46.0187 24.2139 46.0932 24.5855C46.1409 24.8238 46.1973 25.1051 46.3249 25.3863C46.6516 26.1061 46.9082 26.5706 47.0949 26.5009C47.1538 26.479 47.2546 26.3387 47.3804 26.1639C47.653 25.785 48.0429 25.2433 48.378 25.3863C48.8679 25.5953 48.8912 27.2208 48.728 27.5692C48.5646 27.9174 49.9877 27.2905 50.4544 26.0598C50.8276 25.0752 50.8587 24.2408 50.8276 23.9466C50.9598 23.8305 51.2568 23.6122 51.3875 23.668C51.5181 23.7236 51.5041 25.007 51.4808 25.6418C51.5274 25.665 51.6442 25.6789 51.7375 25.5488C51.8541 25.3863 51.6675 26.4777 51.4808 26.71C51.2942 26.9422 52.5773 26.5706 53.0206 25.5488C53.3752 24.7315 53.3239 24.0007 53.2538 23.7376C53.4016 23.668 53.7252 23.5704 53.8372 23.7376C53.9771 23.9466 54.1637 24.5039 54.2337 25.3863C54.2689 25.8294 54.2393 26.3077 54.2159 26.6858V26.6859C54.1927 27.0607 54.1757 27.3371 54.2337 27.3833C54.3503 27.4763 55.4703 26.5474 55.6569 25.5488C55.8061 24.7501 55.7191 24.0086 55.6569 23.7376H55.9368C55.999 23.8305 56.1187 24.0534 56.1002 24.2021C56.0767 24.3878 56.3101 24.1556 56.3801 23.9466L56.4734 23.668H56.7067C56.7455 23.8924 56.7721 24.4714 56.5667 24.9915C56.6678 25.007 56.954 24.922 57.29 24.4575C57.5393 24.1128 57.6241 23.9856 57.6417 23.9524C57.6649 24.0255 57.6944 24.1966 57.6398 24.3413C57.5699 24.5272 58.0831 24.3878 58.2464 23.7376C58.3771 23.2174 58.3009 22.9481 58.2464 22.8784C58.9308 22.3056 60.2015 21.016 59.8095 20.4401C59.3196 19.7203 57.4066 19.8364 56.8233 19.9758C56.7329 19.9974 56.5469 20.0568 56.2807 20.1419C54.8281 20.6061 50.9881 21.8335 47.2815 21.8335C43.2031 21.8335 41.4848 20.93 39.8946 20.0937L39.8943 20.0936C39.7745 20.0306 39.6554 19.968 39.536 19.9061C38.1735 19.2002 36.4954 17.6459 35.8266 16.957C36.7909 17.7542 39.634 19.5856 43.1055 20.4401C47.2094 21.4504 49.6022 20.9444 52.1982 20.3955C52.3471 20.364 52.4967 20.3324 52.6474 20.3009C53.9437 20.0297 54.8889 19.7232 55.652 19.4759C56.523 19.1935 57.1565 18.9881 57.8032 19.0004C58.7737 19.019 59.5451 19.2868 59.8095 19.4185C59.8329 17.2589 59.5389 12.5775 58.1764 11.1284C57.5793 10.4968 56.3723 10.3389 55.8435 10.3389C55.2292 9.73514 53.8559 8.45797 53.2773 8.17931C52.6987 7.90067 52.1652 7.92388 51.9707 7.97032C51.5509 7.56783 50.5477 6.67457 49.8943 6.32161C49.2411 5.96865 48.4246 5.83396 48.098 5.81074C47.7558 5.4392 46.9035 4.68218 46.2316 4.62645C45.8317 4.59328 45.3895 4.78123 44.9578 4.96468C44.483 5.16651 44.0209 5.36291 43.6421 5.25343C43.235 5.1358 43.0496 4.76807 42.8738 4.41936C42.7373 4.14849 42.6066 3.88908 42.3822 3.76726C42.1636 3.64855 41.5428 3.72791 40.7488 3.8294C39.6788 3.96615 38.2946 4.14308 37.1564 3.92981C35.1734 3.55827 33.4702 2.7223 32.2571 1.8399C31.6538 1.40097 31.1831 0.910364 30.8135 0.525209C30.4402 0.136028 30.0328 0.0188295 29.8334 0.00715839C28.3453 -0.0799482 27.8073 0.647721 26.9986 1.11215C26.213 1.08892 24.605 1.21291 23.8585 1.49157C23.4452 1.64578 23.2653 1.85464 23.0453 2.11005C22.7683 2.43149 22.4278 2.82671 21.4788 3.27962C20.9715 3.52172 20.549 3.7082 20.1831 3.86972C19.3206 4.25043 18.772 4.49257 18.166 4.99799C17.7421 5.35148 17.4139 6.13609 16.9133 7.33259C16.3945 8.57276 15.6906 10.2554 14.5032 12.3591C13.6266 13.9122 12.7698 15.3603 12.0268 16.6162C10.7924 18.7026 9.87205 20.258 9.69728 20.8814C9.53334 21.4661 9.62541 22.035 9.71114 22.5645C9.7718 22.9393 9.82927 23.2943 9.7906 23.6215C9.77396 23.7623 9.74545 23.951 9.71142 24.1764L9.7114 24.1766C9.55459 25.2148 9.28062 27.0288 9.51065 28.4979C9.7906 30.2861 12.5202 36.4164 13.3367 36.6254C13.7857 36.7404 15.5393 36.5674 17.1979 36.4039C18.5559 36.2701 19.8502 36.1424 20.3123 36.1843C20.7911 36.2276 21.2953 36.377 21.7917 36.5242C22.3595 36.6924 22.9172 36.8577 23.4152 36.8577C24.3483 36.8577 24.9317 36.1378 24.7683 35.9753C24.7349 35.9422 24.6404 35.8834 24.4934 35.7921C23.9194 35.4359 22.5457 34.5837 20.8956 32.8171C19.6591 31.4936 18.7414 29.4655 18.6559 28.9392C18.0649 29.5662 16.5282 30.7923 15.1098 30.6808C13.9114 30.5866 13.6082 30.0681 13.4008 29.7133C13.3013 29.543 13.2238 29.4105 13.0801 29.3804C12.9279 29.3485 12.7675 29.3932 12.5951 29.4414C12.2652 29.5334 11.8913 29.6376 11.447 29.2411C10.9058 28.7581 11.1126 27.3369 11.2837 26.6868C11.2837 27.2053 11.4377 28.2936 12.0536 28.4979C12.4624 28.6336 12.7397 28.5663 12.9937 28.5045C13.218 28.4501 13.4241 28.4 13.6867 28.4979C13.9418 28.5933 14.1389 28.8235 14.333 29.0504C14.5647 29.3213 14.7923 29.5873 15.1098 29.6126C15.5764 29.6498 17.365 28.4206 18.236 27.7317C18.0727 27.4453 17.83 26.4498 17.6994 25.5953C17.5687 24.7408 17.6916 23.606 17.7927 23.1107C17.8291 23.257 17.8678 23.4143 17.9088 23.5809L17.9089 23.5813C18.3318 25.3011 19.0003 28.0196 19.9624 30.0307C21.0632 32.3317 22.9126 33.7355 24.3205 34.8042C24.6176 35.0296 24.895 35.2403 25.1416 35.4411C25.7326 35.4335 27.4092 35.5898 29.3875 36.2772C31.2349 36.9189 34.0977 38.5326 36.1086 39.6662C36.7898 40.0501 37.3731 40.379 37.7863 40.5963C39.4194 41.4556 43.9697 43.5912 45.1351 43.5221C46.7215 43.4282 48.0022 42.0661 49.0389 40.9635C49.2829 40.704 49.5134 40.4588 49.7311 40.2479C48.7668 40.1551 46.0963 39.5421 43.1288 37.8329C40.819 36.5027 37.3153 32.8676 34.724 30.1792C33.1538 28.55 31.9186 27.2685 31.4872 27.0582C30.7628 26.7051 29.092 26.7062 27.7278 26.7072C26.9394 26.7078 26.2533 26.7083 25.9114 26.6403C24.9782 26.4545 24.0451 25.7347 23.5551 24.6432C23.3379 24.1593 22.9918 23.0373 22.609 21.7959C22.1284 20.2375 21.5898 18.4912 21.1755 17.584C20.6803 16.4995 20.2512 15.9266 19.9958 15.5856C19.8903 15.4446 19.8144 15.3433 19.7757 15.2619ZM22.6219 18.4896C23.0808 20.208 24.1337 24.0024 25.0483 24.9683C25.6925 25.6489 27.2335 25.6877 28.7147 25.725C29.8617 25.7539 30.9726 25.7819 31.6039 26.1061C32.2276 26.4266 33.4298 27.6891 34.9446 29.28C36.9426 31.3784 39.4848 34.0482 41.9622 35.8824C44.7851 37.9723 48.2147 39.412 50.1277 39.6442C50.2677 39.4197 50.5057 38.8082 50.3376 38.158C50.1697 37.5079 49.5522 37.0976 49.2646 36.9737C49.2023 36.8887 49.0545 36.7694 48.9612 36.9737C48.8679 37.1782 48.6268 37.2293 48.5179 37.2293C48.5179 37.1209 48.4759 36.8995 48.308 36.8809C48.14 36.8623 47.787 37.3221 47.6315 37.5543C47.608 37.6007 47.5382 37.6797 47.4448 37.624C47.3965 37.5951 47.3443 37.3955 47.2847 37.168C47.2004 36.8455 47.1013 36.4669 46.9781 36.4397C46.863 36.4142 46.6075 36.7938 46.381 37.1304C46.1945 37.4075 46.0277 37.6554 45.975 37.624C45.9036 37.5812 45.9021 37.0505 45.9011 36.6351V36.635C45.9003 36.3723 45.8997 36.1558 45.8816 36.1378C45.8638 36.12 45.7705 36.2524 45.6544 36.417L45.6543 36.4172C45.4675 36.6821 45.2214 37.031 45.1351 36.9737C45.0626 36.9256 45.0027 36.4851 44.9455 36.0652C44.8923 35.6742 44.8415 35.301 44.7851 35.2786C44.7291 35.2563 44.6406 35.4166 44.5483 35.584C44.4486 35.7644 44.3446 35.953 44.272 35.9288C44.1949 35.9032 44.1956 35.3429 44.1962 34.8327C44.1967 34.416 44.1972 34.0328 44.1552 34.0014C44.1104 33.9679 43.8977 34.2467 43.6763 34.5369C43.4379 34.8495 43.1893 35.1754 43.1288 35.1392C43.0777 35.1087 43.0356 34.7711 42.9887 34.3953C42.9284 33.9126 42.8604 33.3672 42.7555 33.3281C42.6777 33.299 42.5231 33.548 42.3437 33.8368C42.0927 34.2411 41.7932 34.7233 41.589 34.6284C41.3746 34.5289 41.309 33.8184 41.2582 33.2674C41.2262 32.9195 41.1999 32.6351 41.1457 32.6082C41.0851 32.5781 40.9374 32.7478 40.7758 32.9332C40.564 33.1764 40.3285 33.4466 40.2358 33.3281C40.1429 33.209 40.1407 32.8418 40.1388 32.5302C40.1374 32.2945 40.1362 32.0908 40.0959 32.0509C40.0539 32.009 39.9362 32.1368 39.8088 32.2749C39.6533 32.4437 39.4835 32.6278 39.4194 32.5385C39.3604 32.4562 39.3909 31.9816 39.4204 31.5236C39.4492 31.0766 39.477 30.6455 39.4194 30.6112C39.3711 30.5824 39.2072 30.8155 39.0185 31.084C38.7506 31.4653 38.4323 31.918 38.3228 31.7955C38.2198 31.6799 38.3019 30.9614 38.3762 30.3105C38.4365 29.7836 38.4917 29.301 38.4395 29.2178C38.3756 29.116 38.2697 29.1955 38.1715 29.269C38.0907 29.3298 38.0151 29.3864 37.973 29.334C37.9282 29.2783 37.953 28.9992 37.9783 28.7157C38.0057 28.4069 38.0338 28.0931 37.973 28.0568C37.9178 28.0238 37.6176 28.3333 37.3042 28.6566C36.9543 29.0173 36.5879 29.3952 36.5265 29.334C36.4607 29.2685 36.4765 28.9524 36.4902 28.6764C36.501 28.4626 36.5103 28.2729 36.4798 28.2425C36.4502 28.2132 36.3252 28.2706 36.1783 28.338C35.9768 28.4305 35.7344 28.5418 35.6399 28.4748C35.5523 28.4125 35.5923 28.1898 35.6301 27.9788C35.6629 27.7966 35.694 27.623 35.6399 27.5692C35.5846 27.5141 35.435 27.5425 35.2755 27.5729C35.0985 27.6065 34.9094 27.6424 34.8234 27.5692C34.7312 27.4904 34.7728 27.1381 34.8098 26.8251C34.8383 26.5837 34.864 26.3658 34.8234 26.3152C34.7773 26.2578 34.6344 26.3478 34.4931 26.4368C34.3485 26.5279 34.2056 26.6178 34.1702 26.5474C34.1378 26.4829 34.1354 26.2294 34.1329 25.9664C34.1299 25.6612 34.1269 25.3434 34.0769 25.2934C34.0447 25.2614 33.9904 25.3369 33.912 25.4458C33.763 25.653 33.5268 25.9813 33.1903 25.9204C32.9152 25.8707 32.801 25.7409 32.6824 25.606C32.5797 25.4893 32.4737 25.3689 32.2571 25.2934C31.8839 25.1634 31.355 25.2392 31.1373 25.2934C31.0285 24.9838 30.7733 24.0394 30.624 22.7391C30.4374 21.1136 30.484 20.2312 30.554 20.1383C30.6101 20.064 32.5838 18.9927 33.5636 18.4664C31.4562 19.1011 27.5212 20.2312 24.745 19.9061C23.8965 19.8067 22.8086 18.8379 22.6219 18.4896ZM31.1373 23.1107C31.1684 23.2887 31.254 23.7329 31.3473 24.0859C31.4406 24.4389 31.5572 24.6974 31.6039 24.7826C31.775 24.7594 32.1684 24.7408 32.3738 24.8523C32.5791 24.9637 32.9571 25.2702 33.1203 25.4096C33.3688 25.3507 33.5536 25.1795 33.7047 25.0396C33.8515 24.9037 33.9665 24.7974 34.0769 24.8523C34.4037 25.0148 34.443 25.3626 34.4754 25.6489C34.487 25.7509 34.4976 25.8452 34.5201 25.9204C34.6679 25.8894 35.0846 25.8044 35.1967 25.9901C35.3087 26.1758 35.3367 26.857 35.3367 27.1744C35.5 27.1589 35.8405 27.1511 35.8966 27.2441C35.9525 27.3369 35.9821 27.6852 35.9899 27.8478C36.2154 27.7781 36.6851 27.6806 36.7597 27.8478C36.8345 28.015 36.9153 28.1807 36.9464 28.2425C37.2263 27.9793 37.8516 27.4763 38.1129 27.5692C38.3741 27.662 38.4395 28.4129 38.4395 28.7767C38.494 28.7302 38.6308 28.6652 38.7428 28.7767C38.82 28.8534 38.7907 29.4606 38.7652 29.9927C38.7536 30.2326 38.7428 30.4572 38.7428 30.6112C38.8517 30.4795 39.2748 30.0352 39.536 30.1467C39.7973 30.2582 39.816 31.184 39.7927 31.6329C39.8937 31.5787 40.1379 31.5029 40.3059 31.6329C40.4738 31.7629 40.5469 32.1361 40.5625 32.3063C40.8192 31.6329 40.8192 30.1839 40.1659 28.3819C39.8727 27.5729 39.4205 27.1417 38.9698 26.7117C38.6675 26.4233 38.3658 26.1355 38.1129 25.7347C37.8657 25.3429 37.7608 25.0662 37.6715 24.8307C37.5332 24.4662 37.4325 24.2009 36.8998 23.7608C36.1335 23.128 34.9004 23.4135 34.012 23.6192C33.629 23.708 33.3101 23.7818 33.1203 23.7608C32.7331 23.7179 32.3893 23.2887 32.2571 23.1107H31.1373ZM41.1457 31.2148C40.9031 30.156 40.8113 29.1018 40.9125 28.707C41.1396 28.7522 41.1701 29.0029 41.1955 29.2115C41.2092 29.3241 41.2214 29.4244 41.2624 29.4733C41.2965 29.5139 41.4398 29.3373 41.5984 29.1421C41.7948 28.9004 42.0144 28.6299 42.079 28.707C42.1723 28.8185 42.1179 29.512 42.079 29.8448C42.1489 29.8061 42.3076 29.7519 42.3822 29.8448C42.4241 29.8969 42.4285 30.1546 42.4331 30.4335C42.4388 30.7762 42.445 31.1509 42.5223 31.2148C42.5915 31.2724 42.7409 31.0395 42.8939 30.801C43.0499 30.5578 43.2096 30.3088 43.2921 30.3557C43.3768 30.4039 43.3548 30.7893 43.3336 31.1621C43.3138 31.5083 43.2947 31.8436 43.3621 31.8883C43.4362 31.9376 43.5368 31.8888 43.6321 31.8427C43.7167 31.8017 43.7972 31.7627 43.852 31.7955C43.9104 31.8303 43.9161 32.1275 43.922 32.43C43.9279 32.7313 43.9337 33.0379 43.992 33.0958C44.0466 33.1501 44.239 32.9808 44.4451 32.7995C44.6795 32.5932 44.9315 32.3715 45.0185 32.4456C45.0927 32.509 45.1236 32.798 45.157 33.1118C45.1973 33.4881 45.2413 33.9001 45.3685 34.0014C45.4902 34.0984 45.6756 33.7904 45.8582 33.4869C46.0253 33.2092 46.1901 32.9353 46.3016 32.9797C46.4155 33.025 46.4182 33.3083 46.421 33.6C46.4238 33.9057 46.427 34.2206 46.5583 34.2801C46.6988 34.3437 47.0074 34.0172 47.2808 33.7278C47.5064 33.489 47.7081 33.2755 47.7714 33.3281C47.8834 33.4209 47.8181 34.4969 47.7714 35.0232C47.857 34.9922 48.0513 34.9721 48.1446 35.1392C48.1992 35.2369 48.1722 35.3194 48.1494 35.3891C48.1233 35.4684 48.1028 35.531 48.2147 35.5805C48.3128 35.6239 48.3856 35.6267 48.4519 35.6293C48.5273 35.6322 48.5943 35.6348 48.6812 35.6965C48.7485 35.7444 48.7722 35.808 48.7916 35.8597C48.8192 35.9336 48.8377 35.9835 48.9612 35.9288C49.1291 35.8545 49.28 35.8979 49.3345 35.9288C49.3112 36.0526 49.2318 36.3097 49.1012 36.3469C49.0237 36.3688 49.0145 36.4274 49.0038 36.4953C48.992 36.5706 48.9783 36.6573 48.8679 36.7183C48.6999 36.8112 48.6268 36.757 48.6112 36.7183C48.6035 36.6486 48.5507 36.4954 48.4013 36.4397C48.252 36.3839 47.9191 36.4629 47.7714 36.5094C47.6625 36.3004 47.3748 35.8824 47.0949 35.8824C46.8149 35.8824 46.4494 36.0526 46.3016 36.1378C46.2939 35.9908 46.2363 35.6734 46.0683 35.5805C45.9003 35.4876 45.6251 35.6192 45.5084 35.6965C45.384 35.3715 45.1118 34.7585 45.0185 34.6284C44.9252 34.4984 44.8241 34.5046 44.7851 34.5587C44.7585 34.4598 44.7389 34.3219 44.7185 34.1772C44.6731 33.8578 44.6232 33.5057 44.4819 33.4674C44.2766 33.4116 43.7042 33.8234 43.5487 34.0014C43.4866 33.6066 43.3014 32.7893 43.0587 32.6779C42.8613 32.5871 42.5317 32.8237 42.2944 32.9942H42.2943C42.2401 33.0331 42.1909 33.0686 42.1489 33.0958C41.9389 32.9488 41.3884 32.2738 41.1457 31.2148ZM28.0382 1.89321C28.041 2.11708 28.044 2.35094 28.1977 2.55976C28.3583 2.77762 28.6557 2.74111 28.8959 2.71163C29.0398 2.69396 29.1631 2.67882 29.2243 2.7223C29.2892 2.76849 29.3616 2.88449 29.4501 3.02645C29.5841 3.24137 29.7553 3.51581 29.9941 3.6976C30.3115 3.93911 30.9351 4.29362 31.2072 4.44068C31.1427 4.45604 31.0716 4.47202 30.9954 4.48911L30.9952 4.48917C30.4575 4.60996 29.6738 4.78601 29.2243 5.18376C28.2794 6.01973 28.1044 6.66992 27.9878 7.32013C28.5011 6.6467 29.5322 5.68534 30.2041 5.46242C31.044 5.18376 31.324 5.23021 31.6505 5.46242C31.7275 5.51711 31.8976 5.71861 32.1307 5.99475C32.8872 6.89116 34.3077 8.57408 35.36 8.57408C36.1669 8.57408 36.3805 8.42245 36.5837 8.27827C36.7271 8.17649 36.8651 8.07843 37.203 8.03999C37.4352 8.01358 37.5469 8.10087 37.6548 8.18519C37.7745 8.27879 37.8896 8.36873 38.1596 8.29543C38.3904 8.23275 38.5269 8.14189 38.6454 8.06299C38.7902 7.96649 38.9084 7.88788 39.1393 7.90067C39.3444 7.912 39.4104 8.0064 39.4759 8.10004C39.5445 8.19815 39.6125 8.29543 39.8393 8.29543C40.0516 8.29543 40.1621 8.21558 40.2634 8.14254C40.3735 8.06303 40.4724 7.99157 40.6791 8.03999C40.8458 8.07901 40.9259 8.17129 41.0165 8.27554C41.1415 8.41945 41.2862 8.58617 41.7057 8.66697C42.0896 8.74092 42.2368 8.68403 42.3812 8.62825C42.5088 8.57894 42.6341 8.5305 42.9188 8.57408C43.2548 8.62554 43.3546 8.74823 43.4481 8.86325C43.5234 8.95587 43.5947 9.04352 43.782 9.08495C43.9593 9.12414 44.1987 9.11786 44.4428 9.11145C44.7769 9.10267 45.1195 9.09368 45.3217 9.20105C45.4817 9.28598 45.6515 9.39518 45.8555 9.52642C46.0977 9.68225 46.3883 9.86917 46.7682 10.0835C47.3281 10.3993 47.9659 10.5711 48.2147 10.6176C47.7792 10.1299 46.7262 9.05709 45.9984 8.66697C45.4318 8.36328 45.236 8.28474 45.0564 8.21262C44.9475 8.16892 44.8446 8.12759 44.6685 8.03999C44.4387 7.92559 44.3786 7.82809 44.3239 7.73918C44.2676 7.64761 44.2169 7.56515 43.992 7.48268C43.5695 7.32776 42.2569 7.32049 42.1953 7.32014L42.1931 7.32013H42.1956C42.2656 7.32013 42.0323 6.8557 41.2857 6.5306C40.6885 6.27053 39.8393 6.31388 39.4893 6.36806C39.4427 6.14358 39.2141 5.68071 38.6728 5.62498C38.1316 5.56924 37.5297 5.86492 37.2963 6.01973C37.1175 5.83397 36.5918 5.46242 35.9199 5.46242C35.248 5.46242 34.6445 5.75656 34.4268 5.90363C33.3925 4.68064 31.1793 2.13248 30.6007 1.72378C30.0222 1.31509 28.794 0.947573 27.9878 1.46835C28.0345 1.59856 28.0364 1.74365 28.0382 1.89321ZM19.939 11.6857C20.0557 11.6548 20.5456 11.1749 20.5456 10.4782C20.5456 10.3888 20.5309 10.1957 20.5111 9.93389L20.511 9.93376V9.93371L20.511 9.93351C20.4245 8.79416 20.2391 6.35411 20.7322 5.48564C21.1715 4.71217 22.8094 4.0848 23.9278 3.65644C24.3541 3.49323 24.7047 3.3589 24.8849 3.25639C25.4076 2.95916 25.8181 2.73005 25.9581 2.65265C25.9037 2.85389 25.5942 3.40501 24.7916 3.99948C24.4921 4.22137 24.1654 4.42051 23.8367 4.62097C23.0643 5.09179 22.2799 5.57 21.8054 6.36806C21.5617 6.77798 21.5747 7.60774 21.5881 8.46651C21.6026 9.38888 21.6175 10.3447 21.3155 10.8498C20.8489 11.63 20.2034 11.7322 19.939 11.6857ZM31.6505 9.20105C30.0642 8.94098 29.6364 8.08643 29.6209 7.69167C29.7375 6.80926 30.5727 6.58633 31.4872 6.80926C32.4018 7.03217 32.9571 8.14062 33.167 8.66697C33.2915 8.95337 33.237 9.46114 31.6505 9.20105ZM51.4808 12.0805C51.5041 12.3824 52.1808 13.3112 53.0672 13.7757C53.2666 13.8801 53.4741 13.9821 53.6797 14.0831V14.0833H53.6799C54.3883 14.4317 55.0718 14.7678 55.3069 15.1457C55.3711 15.249 55.4249 15.3386 55.471 15.4157C55.6429 15.7026 55.7098 15.8142 55.8201 15.7959C55.9601 15.7727 55.8901 14.4955 54.9337 13.288C54.1684 12.322 52.313 12.0805 51.4808 12.0805ZM56.7534 12.8933C56.0069 12.1502 55.5636 11.3839 55.6335 11.0588C56.1856 11.1052 57.4159 11.5 57.9199 12.7075C58.4237 13.915 58.1298 14.7741 57.9199 15.0528C57.9199 14.9135 57.8919 14.5605 57.7799 14.2633C57.6398 13.8917 57.4999 13.6363 56.7534 12.8933ZM10.3972 25.1309C10.7238 24.9141 11.4144 24.3924 11.5637 24.0396C11.6478 23.8407 11.5945 23.6843 11.5383 23.5194C11.4698 23.3183 11.397 23.1045 11.5637 22.7856C11.8669 22.2051 13.6633 20.9046 13.99 20.8814C14.0158 20.8795 14.0417 20.878 14.0678 20.8764C14.3719 20.8583 14.6942 20.8391 15.0165 20.3473C15.1177 20.1928 15.2803 19.7632 15.4798 19.2362C15.831 18.3084 16.2965 17.0785 16.7429 16.5157C17.3028 15.8099 18.0338 15.3392 18.3293 15.1922C18.376 15.4011 18.2313 15.9352 18.1193 16.2138C18.0638 16.3521 17.7734 16.9104 17.4242 17.5816H17.4241L17.4241 17.5818C16.893 18.6028 16.2259 19.8849 16.043 20.3473C15.9568 20.5651 15.9064 20.7228 15.8672 20.8457C15.7684 21.1549 15.7404 21.2424 15.3897 21.5084C15.0796 21.7436 14.9002 21.7608 14.7039 21.7795C14.5901 21.7905 14.4706 21.802 14.3166 21.8567C13.6633 22.0889 12.5668 23.041 12.4502 23.3196C12.4005 23.4382 12.4143 23.6494 12.4285 23.8672C12.4476 24.1611 12.4675 24.4669 12.3335 24.5736C11.6337 25.1309 11.0038 25.1309 10.3972 25.1309Z" fill="#202020"/>
<path d="M32.3215 7.78856C32.4039 8.25401 32.1575 8.6862 31.7712 8.75387C31.3849 8.82154 31.005 8.49908 30.9227 8.03363C30.8403 7.56817 31.0867 7.13598 31.4731 7.06831C31.8593 7.00064 32.2393 7.3231 32.3215 7.78856Z" fill="#202020"/>
<path d="M0 52.4474H5.73993C6.64325 52.4474 7.50505 52.5514 8.32539 52.7594C9.14808 52.9675 9.87714 53.4461 10.5125 54.1954C11.1479 54.9446 11.4656 56.0509 11.4656 57.5139C11.4656 59.2134 10.9512 60.5112 9.92218 61.4069C9.60924 61.6858 9.27137 61.9068 8.90863 62.0699C8.54825 62.233 8.16299 62.3547 7.75282 62.4352C7.34265 62.5132 6.93841 62.5627 6.54012 62.5841C6.14418 62.6029 5.65931 62.6123 5.08557 62.6123H4.44543H0V60.7545H0.483663C0.751578 60.7545 0.919904 60.7037 0.98867 60.6021C1.05979 60.5005 1.09535 60.3575 1.09535 60.1731V54.8867C1.09535 54.7025 1.06097 54.5594 0.992223 54.4578C0.923457 54.3562 0.753952 54.3052 0.483663 54.3052H0V52.4474ZM4.66237 55.2342V59.854C4.66237 60.0974 4.70978 60.2498 4.80461 60.3113C4.89944 60.3728 5.05593 60.4035 5.27405 60.4035H5.75416C6.02444 60.4035 6.25323 60.3646 6.44054 60.2866C6.6302 60.2061 6.79617 59.9911 6.93841 59.6413C7.08068 59.2914 7.1518 58.7525 7.1518 58.0245V57.0495C7.1518 56.3239 7.08185 55.7862 6.94198 55.4364C6.80209 55.0841 6.63612 54.8655 6.44409 54.7804C6.25441 54.6953 6.02444 54.6527 5.75416 54.6527H5.27405C4.99902 54.6527 4.82832 54.7 4.76195 54.7947C4.69555 54.8892 4.66237 55.0357 4.66237 55.2342Z" fill="#202020"/>
<path d="M12.2338 62.6123V60.7545H12.657C12.887 60.7545 13.0316 60.7085 13.0909 60.6163C13.1525 60.5241 13.1833 60.3763 13.1833 60.1731V54.8867C13.1833 54.6834 13.1537 54.5358 13.0944 54.4436C13.0352 54.3514 12.8893 54.3052 12.657 54.3052H12.2338V52.4474H17.7105V54.3052H17.2767C17.0728 54.3052 16.9341 54.3455 16.8606 54.4258C16.787 54.5061 16.7504 54.6598 16.7504 54.8867V60.1731C16.7504 60.3976 16.787 60.5513 16.8606 60.6339C16.9341 60.7144 17.0728 60.7545 17.2767 60.7545H17.7105V62.6123H12.2338Z" fill="#202020"/>
<path d="M29.4714 56.0036H25.8012C25.7491 54.9306 25.2441 54.3939 24.2863 54.3939C23.9496 54.3939 23.6794 54.4543 23.4755 54.5747C23.2739 54.6953 23.1102 54.9837 22.9846 55.4399C22.8614 55.8936 22.7998 56.5945 22.7998 57.5423C22.7998 58.405 22.8542 59.0599 22.9633 59.5065C23.0724 59.9508 23.2418 60.2534 23.4719 60.4141C23.7042 60.5726 24.0243 60.6517 24.432 60.6517C24.8494 60.6517 25.1955 60.5963 25.4704 60.485C25.7479 60.374 25.8866 60.2074 25.8866 59.9851V59.9107C25.8866 59.698 25.8475 59.5479 25.7693 59.4605C25.6934 59.3729 25.5049 59.3292 25.2037 59.3292H24.8837V57.4714H30.2146V59.3292C29.9277 59.3434 29.7298 59.3932 29.6207 59.4783C29.5116 59.5609 29.4572 59.7145 29.4572 59.9391V62.6123H27.5795L27.3731 61.8431H27.2878C26.8374 62.2188 26.388 62.4824 25.94 62.6336C25.4919 62.785 24.9501 62.8605 24.3147 62.8605C23.6674 62.8605 23.0522 62.8015 22.469 62.6834C21.8881 62.5651 21.3523 62.3773 20.8614 62.1195C20.3732 61.8619 19.9606 61.5322 19.6239 61.1303C18.8675 60.2322 18.4894 59.0362 18.4894 57.5423C18.4894 57.1287 18.5369 56.7126 18.6317 56.2943C18.7288 55.8736 18.8711 55.4682 19.0584 55.0782C19.2458 54.6882 19.4638 54.343 19.7128 54.043C20.737 52.8044 22.1691 52.185 24.0089 52.185C24.841 52.185 25.5938 52.2701 26.2672 52.4403C26.9429 52.6082 27.519 52.8575 27.9954 53.1885C28.4721 53.5169 28.8372 53.9201 29.0908 54.3974C29.3445 54.8727 29.4714 55.4079 29.4714 56.0036Z" fill="#202020"/>
<path d="M30.7268 62.6123V60.7545H31.1499C31.38 60.7545 31.5246 60.7085 31.5838 60.6163C31.6454 60.5241 31.6763 60.3763 31.6763 60.1731V54.8867C31.6763 54.6834 31.6467 54.5358 31.5874 54.4436C31.5282 54.3514 31.3823 54.3052 31.1499 54.3052H30.7268V52.4474H36.2036V54.3052H35.7696C35.5657 54.3052 35.427 54.3455 35.3535 54.4258C35.2801 54.5061 35.2433 54.6598 35.2433 54.8867V60.1731C35.2433 60.3976 35.2801 60.5513 35.3535 60.6339C35.427 60.7144 35.5657 60.7545 35.7696 60.7545H36.2036V62.6123H30.7268Z" fill="#202020"/>
<path d="M39.3118 62.6123V60.7545H39.9661C40.208 60.7545 40.3704 60.7144 40.4532 60.6339C40.5362 60.5513 40.5778 60.3976 40.5778 60.1731V54.6527H39.9661C39.7077 54.6527 39.5157 54.6692 39.39 54.7025C39.2643 54.7355 39.1836 54.7828 39.1481 54.8442C39.1126 54.9057 39.0793 55.0073 39.0485 55.1491L38.8601 56.0036H36.9823L37.0819 52.4474H47.6442L47.7474 56.0036H45.866L45.6776 55.1491C45.6325 54.9387 45.5614 54.8041 45.4641 54.7449C45.3693 54.6834 45.1346 54.6527 44.76 54.6527H44.1483V60.1731C44.1483 60.3575 44.1827 60.5005 44.2514 60.6021C44.3202 60.7037 44.4849 60.7545 44.7458 60.7545H45.4002V62.6123H39.3118Z" fill="#202020"/>
<path d="M50.2119 52.4474H56.3039L58.7223 59.8824C58.7886 60.1022 58.8478 60.2676 58.9001 60.3788C58.9523 60.4898 59.0328 60.5808 59.1419 60.6517C59.2533 60.7203 59.4039 60.7545 59.5935 60.7545H59.8426V62.6123H54.4084V60.7545H54.8317C55.1327 60.7545 55.2833 60.6765 55.2833 60.5206C55.2833 60.4378 55.2442 60.3019 55.1659 60.1128H51.6274L51.5847 60.2901C51.5919 60.3681 51.6274 60.465 51.6913 60.5808C51.7554 60.6966 51.8691 60.7545 52.0328 60.7545H52.2106V62.6123H48.0142V60.7545H48.2773C48.5951 60.7545 48.8107 60.6943 48.9246 60.5737C49.0407 60.4507 49.164 60.2109 49.2943 59.854L51.0869 54.9895C51.0915 54.973 51.0976 54.953 51.1045 54.9293C51.114 54.9034 51.1236 54.875 51.1331 54.8442C51.1472 54.8158 51.1568 54.7947 51.1615 54.7804C51.1663 54.7662 51.1709 54.7533 51.1758 54.7414C51.2136 54.6657 51.2327 54.5937 51.2327 54.5252C51.2327 54.3786 51.1022 54.3052 50.8414 54.3052H50.2119V52.4474ZM53.4481 55.0746L52.3992 57.9076H54.4511L53.5336 55.0746H53.4481Z" fill="#202020"/>
<path d="M60.5359 62.6123V60.7545H61.0161C61.2578 60.7545 61.4203 60.7144 61.5033 60.6339C61.5863 60.5513 61.6277 60.3976 61.6277 60.1731V54.8867C61.6277 54.6598 61.5863 54.5061 61.5033 54.4258C61.4203 54.3455 61.2578 54.3052 61.0161 54.3052H60.5359V52.4474H66.3328V54.3052H65.7069C65.3654 54.3052 65.1947 54.4116 65.1947 54.6245V60.4035H66.6529C66.7454 60.4035 66.8389 60.407 66.9339 60.4141C67.031 60.4189 67.1022 60.4213 67.1472 60.4213C67.4387 60.4213 67.651 60.3397 67.7838 60.1766C67.9166 60.0135 68.0352 59.6389 68.1394 59.0528H70.003V62.6123H60.5359Z" fill="#202020"/>
<path d="M17.395 68.8351H21.8548C22.8695 68.8351 23.71 68.8646 24.3762 68.9236C25.0425 68.9805 25.6339 69.1057 26.1507 69.2995C26.67 69.4911 27.0742 69.7911 27.3636 70.2001C27.6528 70.6091 27.7974 71.1514 27.7974 71.8274C27.7974 72.3451 27.6505 72.7953 27.3564 73.1783C27.0624 73.5589 26.6949 73.8485 26.2539 74.0469L27.1715 75.5289C27.2213 75.6092 27.3161 75.7688 27.4561 76.0075C27.5958 76.244 27.7156 76.4247 27.8152 76.5501C27.9147 76.6729 28.038 76.7851 28.185 76.8869C28.3321 76.9861 28.5134 77.0712 28.7291 77.1421V79H23.3414V77.1421C23.5902 77.1044 23.7562 77.0676 23.8392 77.0323C23.9246 76.9967 23.9672 76.907 23.9672 76.7628C23.9672 76.6423 23.8699 76.4247 23.6755 76.1104L23.0034 75.0077H22.0432V76.5608C22.0432 76.7404 22.0753 76.8821 22.1392 76.9861C22.2056 77.0902 22.3632 77.1421 22.6123 77.1421V79H17.395V77.1421H17.8788C18.1371 77.1421 18.3008 77.0902 18.3696 76.9861C18.4383 76.8821 18.4727 76.7404 18.4727 76.5608V71.2744C18.4727 71.0948 18.4383 70.9528 18.3696 70.8489C18.3032 70.745 18.1396 70.6929 17.8788 70.6929H17.395V68.8351ZM22.0432 70.9411V72.9726H22.6123C23.4183 72.9726 23.8214 72.6098 23.8214 71.8841C23.8214 71.4989 23.6886 71.246 23.4231 71.1255C23.1575 71.0026 22.8044 70.9411 22.3632 70.9411H22.0432Z" fill="#202020"/>
<path d="M29.4155 79V77.1421H29.9134C30.1813 77.1421 30.3474 77.0973 30.4113 77.0074C30.4777 76.9175 30.5109 76.7686 30.5109 76.5608V71.2744C30.5109 71.0663 30.4789 70.9175 30.4149 70.8276C30.3533 70.7379 30.1908 70.6929 29.9277 70.6929H29.4155V68.8351H38.4913V72.1005H36.6277C36.597 71.8806 36.5579 71.6679 36.5104 71.4623C36.4654 71.2825 36.3896 71.168 36.2828 71.1184C36.1761 71.0663 35.9461 71.0404 35.5928 71.0404H34.0779V72.7422H36.4072V74.9474H34.0779V76.7912H35.5039C35.8856 76.7912 36.1525 76.7533 36.3042 76.6777C36.4558 76.5997 36.5733 76.459 36.6563 76.2557C36.7393 76.0667 36.7878 75.8775 36.802 75.6885H38.6798L38.5945 79H29.4155Z" fill="#202020"/>
<path d="M45.5009 68.8351V70.6929H45.3088C45.1453 70.6929 45.0633 70.7661 45.0633 70.9127C45.0633 70.9836 45.112 71.0747 45.2092 71.1857L45.8636 72.0436H46.0236L46.6921 71.1857C46.8298 71.0036 46.8985 70.8926 46.8985 70.8524C46.8985 70.746 46.806 70.6929 46.6211 70.6929H46.4042V68.8351H51.1376V70.6929H50.7287C50.4702 70.6929 50.2486 70.7625 50.0637 70.902C49.881 71.0392 49.6167 71.3229 49.2705 71.753L48.0044 73.3661L50.1028 76.1529C50.1311 76.1907 50.1572 76.2227 50.181 76.2486C50.207 76.2747 50.2249 76.2959 50.2343 76.3126C50.2652 76.3431 50.347 76.4449 50.4796 76.6174C50.7524 76.9672 51.0345 77.1421 51.3262 77.1421H51.8062V79H45.7604V77.1421C46.0805 77.1303 46.2405 77.0475 46.2405 76.8939C46.2405 76.8065 46.1587 76.6517 45.9952 76.4295L45.3834 75.6034H45.2234L44.4801 76.5323C44.3735 76.667 44.3201 76.797 44.3201 76.9223C44.3201 77.0475 44.4849 77.1209 44.8145 77.1421V79H39.7147V77.1421H40.1842C40.4686 77.1421 40.7069 77.0818 40.899 76.9614C41.0909 76.8407 41.3624 76.5572 41.7134 76.1104L43.1821 74.2207L41.2012 71.5792C41.1917 71.565 41.1501 71.5119 41.0768 71.4197C41.0032 71.3275 40.9286 71.2307 40.8527 71.1291C40.7554 70.9848 40.6535 70.8761 40.5469 70.8029C40.4402 70.7295 40.28 70.6929 40.0667 70.6929H39.7004V68.8351H45.5009Z" fill="#202020"/>
</svg>
