<svg width="20" height="15" viewBox="0 0 20 15" fill="none" xmlns="http://www.w3.org/2000/svg">
<path d="M19.2188 8.86189C19.6502 8.86189 20 8.51839 20 8.09463V3.06905C20 1.37678 18.5981 0 16.875 0H3.125C1.40188 0 0 1.37678 0 3.06905V11.9309C0 13.6232 1.40188 15 3.125 15H16.875C18.5981 15 20 13.6232 20 11.9309C20 11.5072 19.6502 11.1637 19.2188 11.1637C18.7873 11.1637 18.4375 11.5072 18.4375 11.9309C18.4375 12.7771 17.7366 13.4655 16.875 13.4655H3.125C2.26344 13.4655 1.5625 12.7771 1.5625 11.9309V3.23164L8.3498 7.37659C8.85875 7.68737 9.42937 7.84277 10 7.84277C10.5706 7.84277 11.1412 7.68737 11.6502 7.37659L18.4375 3.23164V8.09463C18.4375 8.51839 18.7873 8.86189 19.2188 8.86189ZM10.8251 6.07343C10.3162 6.38421 9.68383 6.38425 9.17492 6.07343L2.21441 1.82271C2.47098 1.64141 2.78551 1.53453 3.125 1.53453H16.875C17.2145 1.53453 17.529 1.64144 17.7856 1.82275L10.8251 6.07343Z" fill="#FF5F46"/>
</svg>
