<svg width="25" height="25" viewBox="0 0 25 25" fill="none" xmlns="http://www.w3.org/2000/svg">
<circle cx="12.5" cy="12.5" r="12.5" fill="#00E676"/>
<path fill-rule="evenodd" clip-rule="evenodd" d="M17.1059 7.88922C15.8839 6.67158 14.2586 6.00071 12.5272 6C8.95939 6 6.05573 8.88969 6.05429 12.4414C6.05382 13.5767 6.35184 14.685 6.9183 15.6619L6 19L9.43138 18.1042C10.3769 18.6175 11.4413 18.888 12.5246 18.8883H12.5273C16.0947 18.8883 18.9986 15.9984 19 12.4465C19.0007 10.7252 18.3281 9.10678 17.1059 7.88922ZM12.5272 17.8004H12.525C11.5596 17.8 10.6129 17.5418 9.78672 17.054L9.59036 16.938L7.55412 17.4696L8.09762 15.4938L7.96966 15.2912C7.4311 14.4387 7.14672 13.4534 7.14719 12.4418C7.14831 9.4897 9.56181 7.08799 12.5293 7.08799C13.9663 7.08846 15.3172 7.64611 16.3329 8.65816C17.3486 9.67021 17.9077 11.0154 17.9072 12.4461C17.9059 15.3984 15.4926 17.8004 12.5272 17.8004ZM15.4782 13.7903C15.3165 13.7097 14.5213 13.3204 14.373 13.2666C14.2249 13.2129 14.1169 13.1862 14.0092 13.3473C13.9014 13.5083 13.5915 13.8709 13.4971 13.9783C13.4027 14.0857 13.3084 14.0992 13.1467 14.0186C12.9849 13.9381 12.4638 13.768 11.846 13.2197C11.3652 12.7929 11.0407 12.2658 10.9463 12.1047C10.852 11.9435 10.9455 11.8648 11.0172 11.7762C11.1923 11.5598 11.3676 11.333 11.4215 11.2256C11.4755 11.1182 11.4485 11.0242 11.408 10.9436C11.3676 10.8631 11.0442 10.0708 10.9094 9.74845C10.7781 9.43472 10.6448 9.47709 10.5455 9.47217C10.4512 9.46749 10.3434 9.46653 10.2355 9.46653C10.1277 9.46653 9.95248 9.50676 9.80418 9.66799C9.65597 9.82914 9.2382 10.2185 9.2382 11.0108C9.2382 11.803 9.81774 12.5684 9.89858 12.6758C9.97942 12.7833 11.0391 14.4091 12.6614 15.1062C13.0473 15.2722 13.3485 15.3711 13.5835 15.4453C13.971 15.5678 14.3234 15.5505 14.6022 15.5091C14.9129 15.4628 15.559 15.1197 15.6939 14.7437C15.8286 14.3677 15.8286 14.0455 15.7881 13.9783C15.7478 13.9112 15.6399 13.8709 15.4782 13.7903Z" fill="white"/>
</svg>
